# Blender 3.6.23
# www.blender.org
mtllib door.mtl
o Cube.004
v 0.000000 0.000000 0.053711
v 0.000000 3.000000 0.053711
v 0.000000 0.000000 -0.053711
v 0.000000 3.000000 -0.053711
v 1.500000 0.000000 0.053711
v 1.500000 3.000000 0.053711
v 1.500000 0.000000 -0.053711
v 1.500000 3.000000 -0.053711
vn -1.0000 -0.0000 -0.0000
vn -0.0000 -0.0000 -1.0000
vn 1.0000 -0.0000 -0.0000
vn -0.0000 -0.0000 1.0000
vn -0.0000 -1.0000 -0.0000
vn -0.0000 1.0000 -0.0000
vt 0.051676 0.000000
vt 0.051676 0.845959
vt 0.816925 0.845959
vt 0.816925 0.000000
s 0
usemtl Material
f 1/1/1 2/2/1 4/2/1 3/1/1
f 3/1/2 4/2/2 8/3/2 7/4/2
f 7/4/3 8/3/3 6/3/3 5/4/3
f 5/4/4 6/3/4 2/2/4 1/1/4
f 3/1/5 7/4/5 5/4/5 1/1/5
f 8/3/6 4/2/6 2/2/6 6/3/6
