# Blender 3.6.23
# www.blender.org
mtllib ramp.mtl
o Cube
v -1.000000 0.000000 1.000000
v -1.000000 2.000000 -0.700000
v -1.000000 -0.000000 -1.000000
v -1.000000 2.000000 -1.000000
v 1.000000 0.000000 1.000000
v 1.000000 2.000000 -0.700000
v 1.000000 -0.000000 -1.000000
v 1.000000 2.000000 -1.000000
v 1.000000 0.000000 1.000000
v 1.000000 1.000000 -0.700000
v 1.000000 -0.000000 -1.000000
v 1.000000 1.000000 -1.000000
v 3.000000 0.000000 1.000000
v 3.000000 1.000000 -0.700000
v 3.000000 -0.000000 -1.000000
v 3.000000 1.000000 -1.000000
v -1.000000 1.368363 -0.163109
v -1.000000 1.368363 -1.000000
v 1.000000 1.368363 -1.000000
v 1.000000 1.368363 -0.163109
v -1.000000 1.368182 -4.000000
v -1.000000 -0.000182 -4.000000
v 1.000000 -0.000182 -4.000000
v 1.000000 1.368182 -4.000000
v 1.000000 -0.000000 -3.500000
v 3.000000 -0.000000 -3.500000
v 1.000000 1.000000 -3.500000
v 3.000000 1.000000 -3.500000
vn -1.0000 -0.0000 -0.0000
vn -0.0000 -0.0000 -1.0000
vn 1.0000 -0.0000 -0.0000
vn -0.0000 0.6476 0.7619
vn -0.0000 -1.0000 -0.0000
vn -0.0000 1.0000 -0.0000
vn -0.0000 0.8619 0.5070
vn -0.0000 1.0000 -0.0001
vn -0.0000 -1.0000 0.0001
vt -1.368363 -0.163109
vt -2.000000 -0.700000
vt -2.000000 -1.000000
vt -1.368363 -1.000000
vt 1.000000 1.368363
vt 1.000000 2.000000
vt -1.000000 2.000000
vt -1.000000 1.368363
vt 1.368363 -1.000000
vt 2.000000 -1.000000
vt 2.000000 -0.700000
vt 1.368363 -0.163109
vt -1.000000 -1.000000
vt 1.000000 -1.000000
vt 1.000000 1.000000
vt -1.000000 1.000000
vt 1.000000 -0.700000
vt -1.000000 -0.700000
vt 0.000000 1.000000
vt 0.000000 -1.000000
vt -1.000000 -3.500000
vt 0.000000 -3.500000
vt -3.000000 1.000000
vt -3.000000 -0.700000
vt 3.000000 -1.000000
vt 3.000000 1.000000
vt -3.000000 -1.000000
vt 1.000000 0.000000
vt -1.000000 0.000000
vt -1.368182 -4.000000
vt 0.000182 -4.000000
vt 1.000000 -0.000182
vt 1.000000 1.368182
vt -1.000000 1.368182
vt -1.000000 -0.000182
vt -1.000000 -4.000000
vt 1.000000 -4.000000
vt -0.000182 -4.000000
vt 1.368182 -4.000000
vt -3.000000 0.000000
vt -3.000000 -3.500000
vt 1.000000 -3.500000
vt 3.000000 -3.500000
s 0
usemtl Material.001
f 17/1/1 2/2/1 4/3/1 18/4/1
f 18/5/2 4/6/2 8/7/2 19/8/2
f 19/9/3 8/10/3 6/11/3 20/12/3
f 20/5/4 6/6/4 2/7/4 17/8/4
f 3/13/5 7/14/5 5/15/5 1/16/5
f 8/13/6 4/14/6 2/17/6 6/18/6
f 9/19/1 10/18/1 12/13/1 11/20/1
f 11/20/1 12/13/1 27/21/1 25/22/1
f 15/20/3 16/14/3 14/17/3 13/19/3
f 13/23/7 14/24/7 10/18/7 9/16/7
f 11/14/5 15/25/5 13/26/5 9/15/5
f 16/27/6 12/13/6 10/18/6 14/24/6
f 5/28/4 20/5/4 17/8/4 1/29/4
f 7/20/3 19/9/3 20/12/3 5/19/3
f 3/20/1 18/4/1 21/30/1 22/31/1
f 1/19/1 17/1/1 18/4/1 3/20/1
f 22/32/2 21/33/2 24/34/2 23/35/2
f 18/14/8 19/13/8 24/36/8 21/37/8
f 19/9/3 7/20/3 23/38/3 24/39/3
f 7/14/9 3/13/9 22/36/9 23/37/9
f 25/29/2 27/16/2 28/23/2 26/40/2
f 12/13/6 16/27/6 28/41/6 27/21/6
f 16/14/3 15/20/3 26/22/3 28/42/3
f 15/25/5 11/14/5 25/42/5 26/43/5
