# Blender 3.6.23
# www.blender.org
mtllib stairs.mtl
o Cube.005
v 0.000000 0.000000 0.000000
v 0.000000 0.250000 -0.000000
v 0.000000 -0.000000 -0.250000
v 0.000000 0.250000 -0.250000
v 2.000000 0.000000 0.000000
v 2.000000 0.250000 -0.000000
v 2.000000 -0.000000 -0.250000
v 2.000000 0.250000 -0.250000
v 0.000000 0.250000 -0.500000
v 0.000000 -0.000000 -0.500000
v 2.000000 -0.000000 -0.500000
v 2.000000 0.250000 -0.500000
v 0.000000 0.500000 -0.250000
v 2.000000 0.500000 -0.250000
v 0.000000 0.500000 -0.500000
v 2.000000 0.500000 -0.500000
v 0.000000 0.250000 -0.750000
v 0.000000 -0.000000 -0.750000
v 2.000000 -0.000000 -0.750000
v 2.000000 0.250000 -0.750000
v 0.000000 0.500000 -0.750000
v 2.000000 0.500000 -0.750000
v 0.000000 0.750000 -0.500000
v 2.000000 0.750000 -0.500000
v 0.000000 0.750000 -0.750000
v 2.000000 0.750000 -0.750000
v 0.000000 0.250000 -1.000000
v 0.000000 -0.000000 -1.000000
v 2.000000 -0.000000 -1.000000
v 2.000000 0.250000 -1.000000
v 0.000000 0.500000 -1.000000
v 2.000000 0.500000 -1.000000
v 0.000000 0.750000 -1.000000
v 2.000000 0.750000 -1.000000
v 2.000000 1.000000 -1.000000
v 2.000000 1.000000 -0.750000
v 0.000000 1.000000 -0.750000
v 0.000000 1.000000 -1.000000
v 0.000000 0.250000 -1.250000
v 0.000000 -0.000000 -1.250000
v 2.000000 -0.000000 -1.250000
v 2.000000 0.250000 -1.250000
v 0.000000 0.500000 -1.250000
v 2.000000 0.500000 -1.250000
v 0.000000 0.750000 -1.250000
v 2.000000 0.750000 -1.250000
v 0.000000 1.000000 -1.250000
v 2.000000 1.000000 -1.250000
v 0.000000 1.250000 -1.000000
v 0.000000 1.250000 -1.250000
v 2.000000 1.250000 -1.000000
v 2.000000 1.250000 -1.250000
v 0.000000 0.250000 -1.500000
v 0.000000 -0.000000 -1.500000
v 2.000000 -0.000000 -1.500000
v 2.000000 0.250000 -1.500000
v 0.000000 0.500000 -1.500000
v 2.000000 0.500000 -1.500000
v 0.000000 0.750000 -1.500000
v 2.000000 0.750000 -1.500000
v 0.000000 1.000000 -1.500000
v 2.000000 1.000000 -1.500000
v 0.000000 1.250000 -1.500000
v 2.000000 1.250000 -1.500000
v 0.000000 1.500000 -1.250000
v 2.000000 1.500000 -1.250000
v 0.000000 1.500000 -1.500000
v 2.000000 1.500000 -1.500000
v 0.000000 0.250000 -1.750000
v 0.000000 -0.000000 -1.750000
v 2.000000 -0.000000 -1.750000
v 2.000000 0.250000 -1.750000
v 0.000000 0.500000 -1.750000
v 2.000000 0.500000 -1.750000
v 0.000000 0.750000 -1.750000
v 2.000000 0.750000 -1.750000
v 0.000000 1.000000 -1.750000
v 2.000000 1.000000 -1.750000
v 0.000000 1.250000 -1.750000
v 2.000000 1.250000 -1.750000
v 0.000000 1.500000 -1.750000
v 2.000000 1.500000 -1.750000
v 0.000000 1.750000 -1.750000
v 0.000000 1.750000 -1.500000
v 2.000000 1.750000 -1.500000
v 2.000000 1.750000 -1.750000
v 0.000000 0.250000 -2.000000
v 0.000000 -0.000000 -2.000000
v 2.000000 -0.000000 -2.000000
v 2.000000 0.250000 -2.000000
v 0.000000 0.500000 -2.000000
v 2.000000 0.500000 -2.000000
v 0.000000 0.750000 -2.000000
v 2.000000 0.750000 -2.000000
v 0.000000 1.000000 -2.000000
v 2.000000 1.000000 -2.000000
v 0.000000 1.250000 -2.000000
v 2.000000 1.250000 -2.000000
v 0.000000 1.500000 -2.000000
v 2.000000 1.500000 -2.000000
v 0.000000 1.750000 -2.000000
v 2.000000 1.750000 -2.000000
v 0.000000 2.000000 -1.750000
v 2.000000 2.000000 -1.750000
v 0.000000 2.000000 -2.000000
v 2.000000 2.000000 -2.000000
v 0.000000 0.250000 -2.250000
v 0.000000 -0.000000 -2.250000
v 2.000000 -0.000000 -2.250000
v 2.000000 0.250000 -2.250000
v 0.000000 0.500000 -2.250000
v 2.000000 0.500000 -2.250000
v 0.000000 0.750000 -2.250000
v 2.000000 0.750000 -2.250000
v 0.000000 1.000000 -2.250000
v 2.000000 1.000000 -2.250000
v 0.000000 1.250000 -2.250000
v 2.000000 1.250000 -2.250000
v 0.000000 1.500000 -2.250000
v 2.000000 1.500000 -2.250000
v 0.000000 1.750000 -2.250000
v 2.000000 1.750000 -2.250000
v 0.000000 2.000000 -2.250000
v 2.000000 2.000000 -2.250000
v 0.000000 2.250000 -2.000000
v 0.000000 2.250000 -2.250000
v 2.000000 2.250000 -2.000000
v 2.000000 2.250000 -2.250000
v 0.000000 0.250000 -2.500000
v 0.000000 -0.000000 -2.500000
v 2.000000 -0.000000 -2.500000
v 2.000000 0.250000 -2.500000
v 0.000000 0.500000 -2.500000
v 2.000000 0.500000 -2.500000
v 0.000000 0.750000 -2.500000
v 2.000000 0.750000 -2.500000
v 0.000000 1.000000 -2.500000
v 2.000000 1.000000 -2.500000
v 0.000000 1.250000 -2.500000
v 2.000000 1.250000 -2.500000
v 0.000000 1.500000 -2.500000
v 2.000000 1.500000 -2.500000
v 0.000000 1.750000 -2.500000
v 2.000000 1.750000 -2.500000
v 0.000000 2.000000 -2.500000
v 2.000000 2.000000 -2.500000
v 0.000000 2.250000 -2.500000
v 2.000000 2.250000 -2.500000
v 2.000000 2.500000 -2.500000
v 2.000000 2.500000 -2.250000
v 0.000000 2.500000 -2.250000
v 0.000000 2.500000 -2.500000
v 0.000000 0.250000 -2.750000
v 0.000000 -0.000000 -2.750000
v 2.000000 -0.000000 -2.750000
v 2.000000 0.250000 -2.750000
v 0.000000 0.500000 -2.750000
v 2.000000 0.500000 -2.750000
v 0.000000 0.750000 -2.750000
v 2.000000 0.750000 -2.750000
v 0.000000 1.000000 -2.750000
v 2.000000 1.000000 -2.750000
v 0.000000 1.250000 -2.750000
v 2.000000 1.250000 -2.750000
v 0.000000 1.500000 -2.750000
v 2.000000 1.500000 -2.750000
v 0.000000 1.750000 -2.750000
v 2.000000 1.750000 -2.750000
v 0.000000 2.000000 -2.750000
v 2.000000 2.000000 -2.750000
v 0.000000 2.250000 -2.750000
v 2.000000 2.250000 -2.750000
v 0.000000 2.500000 -2.750000
v 2.000000 2.500000 -2.750000
v 0.000000 2.750000 -2.500000
v 2.000000 2.750000 -2.500000
v 0.000000 2.750000 -2.750000
v 2.000000 2.750000 -2.750000
v 0.000000 0.250000 -3.000000
v 0.000000 -0.000000 -3.000000
v 2.000000 -0.000000 -3.000000
v 2.000000 0.250000 -3.000000
v 0.000000 0.500000 -3.000000
v 2.000000 0.500000 -3.000000
v 0.000000 0.750000 -3.000000
v 2.000000 0.750000 -3.000000
v 0.000000 1.000000 -3.000000
v 2.000000 1.000000 -3.000000
v 0.000000 1.250000 -3.000000
v 2.000000 1.250000 -3.000000
v 0.000000 1.500000 -3.000000
v 2.000000 1.500000 -3.000000
v 0.000000 1.750000 -3.000000
v 2.000000 1.750000 -3.000000
v 0.000000 2.000000 -3.000000
v 2.000000 2.000000 -3.000000
v 0.000000 2.250000 -3.000000
v 2.000000 2.250000 -3.000000
v 0.000000 2.500000 -3.000000
v 2.000000 2.500000 -3.000000
v 0.000000 2.750000 -3.000000
v 2.000000 2.750000 -3.000000
vn -1.0000 -0.0000 -0.0000
vn 1.0000 -0.0000 -0.0000
vn -0.0000 -0.0000 1.0000
vn -0.0000 -1.0000 -0.0000
vn -0.0000 1.0000 -0.0000
vn -0.0000 -0.0000 -1.0000
vt 0.000000 0.000000
vt -0.250000 0.000000
vt -0.250000 -0.250000
vt 0.000000 -0.250000
vt -0.250000 -0.500000
vt 0.000000 -0.500000
vt 0.250000 -0.250000
vt 0.250000 0.000000
vt 2.000000 0.000000
vt 2.000000 0.250000
vt 0.000000 0.250000
vt 2.000000 -0.250000
vt -2.000000 -0.250000
vt -2.000000 0.000000
vt -0.250000 -0.750000
vt 0.000000 -0.750000
vt 0.250000 -0.500000
vt 2.000000 -0.500000
vt 0.500000 -0.500000
vt 0.250000 -0.750000
vt 0.500000 -0.750000
vt -2.000000 -0.500000
vt 0.500000 -0.250000
vt 2.000000 0.500000
vt 0.000000 0.500000
vt -0.500000 -0.250000
vt -0.500000 -0.500000
vt 0.750000 -0.750000
vt 0.750000 -1.000000
vt 1.000000 -1.000000
vt 1.000000 -0.750000
vt 0.250000 -1.000000
vt 0.500000 -1.000000
vt 2.000000 0.750000
vt 0.000000 0.750000
vt -0.500000 -0.750000
vt 2.000000 -0.750000
vt -2.000000 -0.750000
vt 0.750000 -0.500000
vt -0.750000 -0.500000
vt -0.750000 -0.750000
vt 0.750000 -1.250000
vt 1.000000 -1.250000
vt 0.000000 -1.000000
vt 0.000000 -1.250000
vt 0.250000 -1.250000
vt 0.500000 -1.250000
vt -0.250000 -1.000000
vt -0.750000 -1.000000
vt -0.500000 -1.000000
vt 2.000000 -1.000000
vt -2.000000 -1.000000
vt 2.000000 1.000000
vt 0.000000 1.000000
vt -1.000000 -0.750000
vt -1.000000 -1.000000
vt -1.000000 -1.250000
vt -0.750000 -1.250000
vt 0.750000 -1.500000
vt 1.000000 -1.500000
vt -0.250000 -1.250000
vt -0.250000 -1.500000
vt 0.000000 -1.500000
vt 1.250000 -1.250000
vt 1.250000 -1.500000
vt 0.250000 -1.500000
vt 2.000000 -1.250000
vt -1.250000 -1.000000
vt -1.250000 -1.250000
vt -0.500000 -1.250000
vt -2.000000 -1.250000
vt 2.000000 1.250000
vt 0.000000 1.250000
vt 1.250000 -1.000000
vt 0.500000 -1.500000
vt -1.250000 -1.500000
vt -1.500000 -1.500000
vt -1.500000 -1.750000
vt -1.250000 -1.750000
vt -0.500000 -1.500000
vt -0.500000 -1.750000
vt -0.250000 -1.750000
vt -0.750000 -1.500000
vt -1.000000 -1.500000
vt -1.000000 -1.750000
vt -0.750000 -1.750000
vt 0.750000 -1.750000
vt 1.000000 -1.750000
vt 0.000000 -1.750000
vt 0.250000 -1.750000
vt 2.000000 -1.500000
vt 1.500000 -1.500000
vt 1.500000 -1.750000
vt 1.750000 -1.750000
vt 1.750000 -1.500000
vt -2.000000 -1.500000
vt -1.500000 -1.250000
vt 2.000000 1.500000
vt 0.000000 1.500000
vt 1.500000 -1.250000
vt -1.500000 -2.000000
vt -1.250000 -2.000000
vt 0.500000 -1.750000
vt 0.500000 -2.000000
vt 0.750000 -2.000000
vt 1.750000 -2.000000
vt 2.000000 -2.000000
vt 2.000000 -1.750000
vt 0.000000 -2.000000
vt -0.750000 -2.000000
vt -0.500000 -2.000000
vt 1.250000 -1.750000
vt 1.000000 -2.000000
vt 1.250000 -2.000000
vt -2.000000 -1.750000
vt 2.000000 1.750000
vt 0.000000 1.750000
vt -1.750000 -1.500000
vt -1.750000 -1.750000
vt -0.250000 -2.000000
vt 0.750000 -2.250000
vt 1.000000 -2.250000
vt -2.000000 -2.250000
vt -2.000000 -2.000000
vt -2.250000 -2.000000
vt -2.250000 -2.250000
vt 1.500000 -2.000000
vt 1.250000 -2.250000
vt 1.500000 -2.250000
vt 0.250000 -2.000000
vt 0.000000 -2.250000
vt 0.250000 -2.250000
vt -1.500000 -2.250000
vt -1.250000 -2.250000
vt 0.500000 -2.250000
vt 2.000000 -2.250000
vt -1.000000 -2.000000
vt -1.750000 -2.000000
vt -1.750000 -2.250000
vt 2.000000 2.000000
vt 0.000000 2.000000
vt 0.000000 2.250000
vt 2.000000 2.250000
vt 2.000000 2.500000
vt 0.000000 2.500000
vt 1.750000 -2.250000
vt 1.750000 -2.500000
vt 2.000000 -2.500000
vt -0.500000 -2.250000
vt -0.750000 -2.250000
vt -0.750000 -2.500000
vt -0.500000 -2.500000
vt 1.000000 -2.500000
vt 1.250000 -2.500000
vt -0.250000 -2.250000
vt -0.250000 -2.500000
vt 0.000000 -2.500000
vt -1.000000 -2.250000
vt -1.250000 -2.500000
vt -1.000000 -2.500000
vt -1.750000 -2.500000
vt -1.500000 -2.500000
vt 0.250000 -2.500000
vt 0.500000 -2.500000
vt 2.250000 -2.250000
vt 2.250000 -2.500000
vt 2.250000 -2.000000
vt 0.750000 -2.500000
vt 0.500000 -2.750000
vt 0.750000 -2.750000
vt -2.250000 -2.500000
vt -2.500000 -2.500000
vt -2.500000 -2.750000
vt -2.250000 -2.750000
vt 0.000000 -2.750000
vt 2.000000 -2.750000
vt 1.750000 -2.750000
vt -0.750000 -2.750000
vt -0.500000 -2.750000
vt 1.000000 -2.750000
vt 1.250000 -2.750000
vt -0.250000 -2.750000
vt -1.250000 -2.750000
vt -1.000000 -2.750000
vt -1.750000 -2.750000
vt -1.500000 -2.750000
vt -2.000000 -2.500000
vt 1.500000 -2.500000
vt 0.250000 -2.750000
vt 2.500000 -2.500000
vt 2.500000 -2.250000
vt -2.500000 -2.250000
vt 0.250000 -3.000000
vt 0.500000 -3.000000
vt 1.500000 -2.750000
vt 1.500000 -3.000000
vt 1.750000 -3.000000
vt -0.500000 -3.000000
vt -0.250000 -3.000000
vt 2.250000 -2.750000
vt 2.000000 -3.000000
vt 2.250000 -3.000000
vt -1.000000 -3.000000
vt -0.750000 -3.000000
vt 2.750000 -2.750000
vt 2.500000 -2.750000
vt 2.500000 -3.000000
vt 2.750000 -3.000000
vt -2.000000 -2.750000
vt -2.250000 -3.000000
vt -2.000000 -3.000000
vt 0.750000 -3.000000
vt 1.000000 -3.000000
vt -2.750000 -2.750000
vt -2.750000 -3.000000
vt -2.500000 -3.000000
vt 1.250000 -3.000000
vt -0.000000 -3.000000
vt -2.750000 -2.500000
vt 2.750000 -2.500000
vt 2.000000 2.750000
vt 0.000000 2.750000
vt 0.000000 -0.000000
vt 0.000000 0.250000
vt -2.000000 0.250000
vt -2.000000 -0.000000
vt 0.000000 0.500000
vt -2.000000 0.500000
vt 0.000000 0.750000
vt -2.000000 0.750000
vt 0.000000 1.000000
vt -2.000000 1.000000
vt 0.000000 1.250000
vt -2.000000 1.250000
vt 0.000000 1.500000
vt -2.000000 1.500000
vt 0.000000 1.750000
vt -2.000000 1.750000
vt 0.000000 2.000000
vt -2.000000 2.000000
vt 0.000000 2.250000
vt -2.000000 2.250000
vt 0.000000 2.500000
vt -2.000000 2.500000
vt 0.000000 2.750000
vt -2.000000 2.750000
vt -1.750000 -3.000000
vt -1.500000 -3.000000
vt -1.250000 -3.000000
vt 0.000000 -3.000000
vt -2.000000 -3.000000
vt 0.000000 -3.000000
vt 2.000000 -3.000000
s 0
usemtl Material.002
f 1/1/1 2/2/1 4/3/1 3/4/1
f 3/4/1 4/3/1 9/5/1 10/6/1
f 7/4/2 8/7/2 6/8/2 5/1/2
f 5/9/3 6/10/3 2/11/3 1/1/3
f 3/4/4 7/12/4 5/9/4 1/1/4
f 8/13/5 4/4/5 2/1/5 6/14/5
f 10/6/1 9/5/1 17/15/1 18/16/1
f 8/7/2 7/4/2 11/6/2 12/17/2
f 7/12/4 3/4/4 10/6/4 11/18/4
f 16/19/2 12/17/2 20/20/2 22/21/2
f 13/4/5 14/13/5 16/22/5 15/6/5
f 8/7/2 12/17/2 16/19/2 14/23/2
f 4/11/3 8/10/3 14/24/3 13/25/3
f 9/5/1 4/3/1 13/26/1 15/27/1
f 26/28/2 34/29/2 35/30/2 36/31/2
f 22/21/2 20/20/2 30/32/2 32/33/2
f 15/25/3 16/24/3 24/34/3 23/35/3
f 12/17/2 11/6/2 19/16/2 20/20/2
f 9/5/1 15/27/1 21/36/1 17/15/1
f 11/18/4 10/6/4 18/16/4 19/37/4
f 23/6/5 24/22/5 26/38/5 25/16/5
f 26/28/2 22/21/2 32/33/2 34/29/2
f 16/19/2 22/21/2 26/28/2 24/39/2
f 21/36/1 15/27/1 23/40/1 25/41/1
f 35/30/2 34/29/2 46/42/2 48/43/2
f 30/32/2 29/44/2 41/45/2 42/46/2
f 32/33/2 30/32/2 42/46/2 44/47/2
f 18/16/1 17/15/1 27/48/1 28/44/1
f 21/36/1 25/41/1 33/49/1 31/50/1
f 17/15/1 21/36/1 31/50/1 27/48/1
f 20/20/2 19/16/2 29/44/2 30/32/2
f 19/37/4 18/16/4 28/44/4 29/51/4
f 37/16/5 36/38/5 35/52/5 38/44/5
f 25/35/3 26/34/3 36/53/3 37/54/3
f 33/49/1 25/41/1 37/55/1 38/56/1
f 33/49/1 38/56/1 47/57/1 45/58/1
f 48/43/2 46/42/2 60/59/2 62/60/2
f 40/45/1 39/61/1 53/62/1 54/63/1
f 52/64/2 48/43/2 62/60/2 64/65/2
f 42/46/2 41/45/2 55/63/2 56/66/2
f 28/44/1 27/48/1 39/61/1 40/45/1
f 29/51/4 28/44/4 40/45/4 41/67/4
f 47/57/1 38/56/1 49/68/1 50/69/1
f 31/50/1 33/49/1 45/58/1 43/70/1
f 27/48/1 31/50/1 43/70/1 39/61/1
f 34/29/2 32/33/2 44/47/2 46/42/2
f 49/44/5 51/52/5 52/71/5 50/45/5
f 38/54/3 35/53/3 51/72/3 49/73/3
f 35/30/2 48/43/2 52/64/2 51/74/2
f 44/47/2 42/46/2 56/66/2 58/75/2
f 63/76/1 67/77/1 81/78/1 79/79/1
f 53/62/1 57/80/1 73/81/1 69/82/1
f 59/83/1 61/84/1 77/85/1 75/86/1
f 62/60/2 60/59/2 76/87/2 78/88/2
f 56/66/2 55/63/2 71/89/2 72/90/2
f 41/67/4 40/45/4 54/63/4 55/91/4
f 47/57/1 50/69/1 63/76/1 61/84/1
f 43/70/1 45/58/1 59/83/1 57/80/1
f 68/92/2 82/93/2 86/94/2 85/95/2
f 39/61/1 43/70/1 57/80/1 53/62/1
f 45/58/1 47/57/1 61/84/1 59/83/1
f 46/42/2 44/47/2 58/75/2 60/59/2
f 65/45/5 66/71/5 68/96/5 67/63/5
f 63/76/1 50/69/1 65/97/1 67/77/1
f 50/73/3 52/72/3 66/98/3 65/99/3
f 52/64/2 64/65/2 68/92/2 66/100/2
f 79/79/1 81/78/1 99/101/1 97/102/1
f 76/87/2 74/103/2 92/104/2 94/105/2
f 86/94/2 102/106/2 106/107/2 104/108/2
f 71/108/4 70/89/4 88/109/4 89/107/4
f 73/81/1 75/86/1 93/110/1 91/111/1
f 80/112/2 78/88/2 96/113/2 98/114/2
f 58/75/2 56/66/2 72/90/2 74/103/2
f 61/84/1 63/76/1 79/79/1 77/85/1
f 68/92/2 64/65/2 80/112/2 82/93/2
f 54/63/1 53/62/1 69/82/1 70/89/1
f 64/65/2 62/60/2 78/88/2 80/112/2
f 57/80/1 59/83/1 75/86/1 73/81/1
f 55/91/4 54/63/4 70/89/4 71/108/4
f 60/59/2 58/75/2 74/103/2 76/87/2
f 84/63/5 85/96/5 86/115/5 83/89/5
f 67/99/3 68/98/3 85/116/3 84/117/3
f 81/78/1 67/77/1 84/118/1 83/119/1
f 70/89/1 69/82/1 87/120/1 88/109/1
f 96/113/2 94/105/2 114/121/2 116/122/2
f 123/123/1 105/124/1 125/125/1 126/126/1
f 100/127/2 98/114/2 118/128/2 120/129/2
f 90/130/2 89/109/2 109/131/2 110/132/2
f 97/102/1 99/101/1 119/133/1 117/134/1
f 94/105/2 92/104/2 112/135/2 114/121/2
f 89/107/4 88/109/4 108/131/4 109/136/4
f 86/94/2 82/93/2 100/127/2 102/106/2
f 72/90/2 71/89/2 89/109/2 90/130/2
f 82/93/2 80/112/2 98/114/2 100/127/2
f 78/88/2 76/87/2 94/105/2 96/113/2
f 75/86/1 77/85/1 95/137/1 93/110/1
f 69/82/1 73/81/1 91/111/1 87/120/1
f 81/78/1 83/119/1 101/138/1 99/101/1
f 74/103/2 72/90/2 90/130/2 92/104/2
f 77/85/1 79/79/1 97/102/1 95/137/1
f 103/89/5 104/115/5 106/124/5 105/109/5
f 101/138/1 105/124/1 123/123/1 121/139/1
f 83/117/3 86/116/3 104/140/3 103/141/3
f 101/138/1 83/119/1 103/115/1 105/124/1
f 126/142/3 128/143/3 150/144/3 151/145/3
f 124/136/2 122/146/2 144/147/2 146/148/2
f 111/149/1 113/150/1 135/151/1 133/152/1
f 118/128/2 116/122/2 138/153/2 140/154/2
f 108/131/1 107/155/1 129/156/1 130/157/1
f 115/158/1 117/134/1 139/159/1 137/160/1
f 119/133/1 121/139/1 143/161/1 141/162/1
f 112/135/2 110/132/2 132/163/2 134/164/2
f 93/110/1 95/137/1 115/158/1 113/150/1
f 87/120/1 91/111/1 111/149/1 107/155/1
f 102/106/2 100/127/2 120/129/2 122/146/2
f 92/104/2 90/130/2 110/132/2 112/135/2
f 99/101/1 101/138/1 121/139/1 119/133/1
f 106/107/2 102/106/2 122/146/2 124/136/2
f 95/137/1 97/102/1 117/134/1 115/158/1
f 88/109/1 87/120/1 107/155/1 108/131/1
f 98/114/2 96/113/2 116/122/2 118/128/2
f 91/111/1 93/110/1 113/150/1 111/149/1
f 125/109/5 127/124/5 128/123/5 126/131/5
f 105/141/3 106/140/3 127/143/3 125/142/3
f 128/165/2 124/136/2 146/148/2 148/166/2
f 106/107/2 124/136/2 128/165/2 127/167/2
f 136/168/2 134/164/2 158/169/2 160/170/2
f 147/171/1 152/172/1 173/173/1 171/174/1
f 131/148/4 130/157/4 154/175/4 155/176/4
f 146/148/2 144/147/2 168/177/2 170/176/2
f 133/152/1 135/151/1 159/178/1 157/179/1
f 140/154/2 138/153/2 162/180/2 164/181/2
f 130/157/1 129/156/1 153/182/1 154/175/1
f 137/160/1 139/159/1 163/183/1 161/184/1
f 141/162/1 143/161/1 167/185/1 165/186/1
f 109/136/4 108/131/4 130/157/4 131/148/4
f 114/121/2 112/135/2 134/164/2 136/168/2
f 121/139/1 123/123/1 145/187/1 143/161/1
f 117/134/1 119/133/1 141/162/1 139/159/1
f 110/132/2 109/131/2 131/157/2 132/163/2
f 120/129/2 118/128/2 140/154/2 142/188/2
f 116/122/2 114/121/2 136/168/2 138/153/2
f 123/123/1 126/126/1 147/171/1 145/187/1
f 113/150/1 115/158/1 137/160/1 135/151/1
f 107/155/1 111/149/1 133/152/1 129/156/1
f 122/146/2 120/129/2 142/188/2 144/147/2
f 151/131/5 150/123/5 149/187/5 152/157/5
f 134/164/2 132/163/2 156/189/2 158/169/2
f 128/165/2 148/166/2 149/190/2 150/191/2
f 147/171/1 126/126/1 151/192/1 152/172/1
f 158/169/2 156/189/2 182/193/2 184/194/2
f 168/177/2 166/195/2 192/196/2 194/197/2
f 153/182/1 157/179/1 183/198/1 179/199/1
f 172/200/2 170/176/2 196/201/2 198/202/2
f 159/178/1 161/184/1 187/203/1 185/204/1
f 178/205/2 174/206/2 200/207/2 202/208/2
f 169/209/1 171/174/1 197/210/1 195/211/1
f 162/180/2 160/170/2 186/212/2 188/213/2
f 173/173/1 177/214/1 201/215/1 199/216/1
f 166/195/2 164/181/2 190/217/2 192/196/2
f 143/161/1 145/187/1 169/209/1 167/185/1
f 139/159/1 141/162/1 165/186/1 163/183/1
f 149/190/2 148/166/2 172/200/2 174/206/2
f 132/163/2 131/157/2 155/175/2 156/189/2
f 142/188/2 140/154/2 164/181/2 166/195/2
f 138/153/2 136/168/2 160/170/2 162/180/2
f 145/187/1 147/171/1 171/174/1 169/209/1
f 135/151/1 137/160/1 161/184/1 159/178/1
f 148/166/2 146/148/2 170/176/2 172/200/2
f 156/189/2 155/175/2 181/218/2 182/193/2
f 129/156/1 133/152/1 157/179/1 153/182/1
f 144/147/2 142/188/2 166/195/2 168/177/2
f 175/157/5 176/187/5 178/209/5 177/175/5
f 173/173/1 152/172/1 175/219/1 177/214/1
f 149/190/2 174/206/2 178/205/2 176/220/2
f 152/145/3 149/144/3 176/221/3 175/222/3
f 180/223/6 179/224/6 182/225/6 181/226/6
f 182/225/6 179/224/6 183/227/6 184/228/6
f 184/228/6 183/227/6 185/229/6 186/230/6
f 186/230/6 185/229/6 187/231/6 188/232/6
f 188/232/6 187/231/6 189/233/6 190/234/6
f 190/234/6 189/233/6 191/235/6 192/236/6
f 192/236/6 191/235/6 193/237/6 194/238/6
f 194/238/6 193/237/6 195/239/6 196/240/6
f 196/240/6 195/239/6 197/241/6 198/242/6
f 198/242/6 197/241/6 199/243/6 200/244/6
f 200/244/6 199/243/6 201/245/6 202/246/6
f 165/186/1 167/185/1 193/247/1 191/248/1
f 161/184/1 163/183/1 189/249/1 187/203/1
f 171/174/1 173/173/1 199/216/1 197/210/1
f 154/175/1 153/182/1 179/199/1 180/250/1
f 164/181/2 162/180/2 188/213/2 190/217/2
f 174/206/2 172/200/2 198/202/2 200/207/2
f 177/175/5 178/209/5 202/251/5 201/252/5
f 157/179/1 159/178/1 185/204/1 183/198/1
f 170/176/2 168/177/2 194/197/2 196/201/2
f 155/176/4 154/175/4 180/252/4 181/253/4
f 160/170/2 158/169/2 184/194/2 186/212/2
f 167/185/1 169/209/1 195/211/1 193/247/1
f 163/183/1 165/186/1 191/248/1 189/249/1
